<?xml version="1.0" encoding="UTF-8"?>
<svg version="1.1" xmlns="http://www.w3.org/2000/svg" width="128" height="128">
<path d="M0 0 C42.24 0 84.48 0 128 0 C128 42.24 128 84.48 128 128 C85.76 128 43.52 128 0 128 C0 85.76 0 43.52 0 0 Z " fill="#24272C" transform="translate(0,0)"/>
<path d="M0 0 C19.8 0 39.6 0 60 0 C60.99 1.98 61.98 3.96 63 6 C66.58419308 9.54086087 70.00346034 10.88986757 74.8125 12.25 C75.97394531 12.58515625 77.13539062 12.9203125 78.33203125 13.265625 C79.65267578 13.62914062 79.65267578 13.62914062 81 14 C79.86177666 16.89729576 79.11043375 17.92961734 76.42578125 19.640625 C73.22995696 22.74896296 73.3535148 24.78431208 73.20507812 29.10546875 C73.19637695 30.41451172 73.19637695 30.41451172 73.1875 31.75 C73.16236328 32.63816406 73.13722656 33.52632812 73.11132812 34.44140625 C73.0525474 36.62804918 73.01620461 38.81269532 73 41 C73.99 40.01 74.98 39.02 76 38 C76.30107307 43.11824225 75.82956174 45.75565738 73 50 C73 50.99 73 51.98 73 53 C73 55 73 55 71.5 56.625 C71.005 57.07875 70.51 57.5325 70 58 C70.99 60.475 70.99 60.475 72 63 C72.99 62.01 72.99 62.01 74 61 C74.495 62.98 74.495 62.98 75 65 C73.68 65.33 72.36 65.66 71 66 C71 67.32 71 68.64 71 70 C72.485 70.495 72.485 70.495 74 71 C73.505 72.485 73.505 72.485 73 74 C73.144375 74.94875 73.28875 75.8975 73.4375 76.875 C73.293125 77.90625 73.14875 78.9375 73 80 C71.10910148 81.4080199 69.11189322 82.45028653 67.04296875 83.578125 C62.85353748 86.49390508 61.55590331 91.33229007 60 96 C53.73 96 47.46 96 41 96 C41.99 94.35 42.98 92.7 44 91 C44.69822617 89.34630643 45.37498605 87.68272986 46 86 C44.02 85.01 44.02 85.01 42 84 C41.608125 84.94875 41.21625 85.8975 40.8125 86.875 C38.80206144 90.34127338 37.77300358 90.9802693 34 92 C34 92.66 34 93.32 34 94 C36.31 93.67 38.62 93.34 41 93 C39 95 39 95 36.93701172 95.22705078 C36.10959473 95.21657715 35.28217773 95.20610352 34.4296875 95.1953125 C33.53378906 95.18886719 32.63789062 95.18242188 31.71484375 95.17578125 C30.30912109 95.15064453 30.30912109 95.15064453 28.875 95.125 C27.45767578 95.11146484 27.45767578 95.11146484 26.01171875 95.09765625 C23.67422708 95.07404522 21.33723877 95.04111516 19 95 C19 95.33 19 95.66 19 96 C12.73 96 6.46 96 0 96 C-0.556875 94.4325 -1.11375 92.865 -1.6875 91.25 C-4.11754939 85.17058314 -7.25068374 82.82593511 -13 80 C-12.9969838 79.28669525 -12.99396759 78.5733905 -12.99085999 77.83847046 C-12.9685693 71.09997801 -12.9798771 64.3624646 -13.02846622 57.62409019 C-13.05227193 54.16006094 -13.06330623 50.69699174 -13.04467773 47.23291016 C-13.02380645 43.24590122 -13.05933791 39.26033424 -13.09765625 35.2734375 C-13.08340103 34.03572601 -13.06914581 32.79801453 -13.05445862 31.52279663 C-12.99207099 25.30932832 -12.99207099 25.30932832 -15.61837769 19.91583252 C-17.49841817 18.27632603 -17.49841817 18.27632603 -19.50047302 17.04116821 C-19.99531693 16.6975827 -20.49016083 16.35399719 -21 16 C-21 15.34 -21 14.68 -21 14 C-20.13117187 13.76925781 -19.26234375 13.53851563 -18.3671875 13.30078125 C-9.22505325 10.77898023 -9.22505325 10.77898023 -2 5 C-1.34 3.35 -0.68 1.7 0 0 Z " fill="#2A2C2F" transform="translate(34,17)"/>
</svg>
